<?xml version="1.0" encoding="UTF-8"?>
<svg width="32" height="32" viewBox="0 0 32 32" xmlns="http://www.w3.org/2000/svg">
    <style>
        .icon { fill: #e65100; }
    </style>
    <rect width="32" height="32" rx="8" fill="white"/>
    <g transform="translate(8, 8)">
        <path class="icon" d="M15 0h-2v-2h2v2zm-4-2H9v2h2v-2zm4-2h-2v2h2v-2zm-4-2H9v2h2v-2zm4-2h-2v2h2v-2zm-4-2H9v2h2v-2z"/>
        <path class="icon" d="M22 14v-2h-2v-2h2v-2h-2V6h2V4h-2V2h2V0h-4v14h4zM6 14V0H2v2h2v2H2v2h2v2H2v2h2v2H2v2h4z"/>
    </g>
</svg> 